<svg width="150" height="150" viewBox="0 0 150 150" xmlns="http://www.w3.org/2000/svg"><g fill="#fff" fill-rule="evenodd"><path d="M48.8 32.2c-19.5-3.6-35 0-41 10.8-4.6 8-3.3 18.5 3 29.7.7 1 2 1.3 3 .8.8-.6 1.2-1.8.6-2.8-5.8-10-7-19.2-3.2-25.7 5-9 19-12.2 37-9 1 .3 2-.4 2.2-1.5.2-1-.5-2-1.6-2.3zM21 86.4c8 8.7 18.2 16.8 30 23.5 28.2 16 58.3 20 73.2 10 1-1 1-2 .5-3-.6-1-2-1-2.8-1-14 9-42 5-69-10.7-12-6-22-14-29-22.3-1-.7-2-1-3 0-1 .7-1 2 0 2.8z"/><path d="M119.4 84c12.8-15 17.2-30.3 11-41-4.4-7.7-14-12-26.6-12-1 0-2 .8-2 2 0 1 .8 2 2 2 11.3 0 19.5 3.7 23.2 10 5 9 1.2 22.4-10.6 36.4-.8.8-.6 2 .2 2.8.8.7 2 .6 2.8-.2zM86.6 32.8C75 35.3 62.8 40 51 47 21.7 63.8 2.7 88.7 5.3 106.7c.2 1 1.2 2 2.3 1.7 1-.2 2-1.2 1.7-2.3C7 90 25 67 53 51c11.4-7 23.3-12 34.4-14.2 1 0 1.8-1 1.6-2.3-.3-1-1.3-1.8-2.4-1.6z"/><path d="M39.3 119.2c6.7 18.7 17.6 30 30 30 8.8 0 17-6 23.6-16.7 0-1 0-2.2-1-2.8-1-.5-2-.2-3 .7-6 9.7-13 15-20 15-10 0-20-10.3-26-27.5-1-2-2-2-3-2s-2 1-1 2zm61-3.6c3.4-11 5.3-23.8 5.3-37 0-33.2-11.6-61.8-28-69-1-.6-2.3 0-2.8 1-.4 1 0 2 1 2.5 14.8 7 25.8 34 25.8 66 0 13-1.8 25-5 36-.5 1 0 2 1.2 3 1 .4 2-.2 2.5-1.2zm37.7-2c0-5.3-4.3-9.6-9.6-9.6s-9.6 4.3-9.6 9.6 4.3 9.6 9.6 9.6 9.5-4.3 9.5-9.6zm-4 0c0 3-2.6 5.6-5.6 5.6-3 0-5.6-2.5-5.6-5.6 0-3 2.5-5.6 5.6-5.6 3 0 5.5 2.5 5.5 5.6zM9.8 123.2c5.3 0 9.6-4.3 9.6-9.6S15 104 9.8 104s-9.5 4.3-9.5 9.6 4.2 9.6 9.5 9.6zm0-4c-3 0-5.5-2.5-5.5-5.6 0-3 2.4-5.6 5.5-5.6 3 0 5.6 2.5 5.6 5.6 0 3-2.5 5.6-5.6 5.6z"/><path d="M69.2 19.2c5.2 0 9.5-4.3 9.5-9.5 0-5.3-4.3-9.6-9.5-9.6s-9.6 5-9.6 10 4.4 10 9.6 10zm0-4c-3 0-5.6-2.5-5.6-5.5S66 4 69.2 4c3 0 5.5 2.6 5.5 5.7 0 3-2.5 5.5-5.5 5.5zm1.4 70c-3.7 1-7.4-1.5-8.2-5.2-.8-3.8 1.6-7.5 5.3-8.3C71.4 71 75 73.3 76 77c.7 3.8-1.6 7.5-5.4 8.3z"/></g></svg>
